<?xml version="1.0" standalone="no"?>
<!DOCTYPE svg PUBLIC "-//W3C//DTD SVG 20010904//EN"
 "http://www.w3.org/TR/2001/REC-SVG-20010904/DTD/svg10.dtd">
<svg version="1.0" xmlns="http://www.w3.org/2000/svg"
 width="512.000000pt" height="512.000000pt" viewBox="0 0 512.000000 512.000000"
 preserveAspectRatio="xMidYMid meet">
<metadata>
Created by potrace 1.15, written by Peter Selinger 2001-2017
</metadata>
<g transform="translate(0.000000,512.000000) scale(0.100000,-0.100000)"
fill="#000000" stroke="none">
<path d="M917 4796 c-25 -10 -104 -79 -255 -224 -270 -261 -319 -313 -337
-357 -20 -45 -19 -108 1 -148 9 -18 328 -345 709 -727 760 -762 730 -727 705
-820 -11 -41 -74 -108 -710 -745 -388 -389 -704 -713 -709 -728 -14 -36 -14
-98 -1 -134 14 -37 536 -561 577 -579 42 -18 105 -18 151 1 26 11 249 228 732
710 603 602 700 695 735 704 90 24 57 52 815 -704 382 -381 709 -700 727 -709
40 -20 115 -21 157 -1 42 20 562 542 575 578 14 36 14 98 0 134 -5 15 -322
340 -709 728 -768 770 -738 735 -711 828 11 37 101 131 706 737 381 382 700
709 709 727 18 37 21 99 6 140 -13 33 -531 557 -575 580 -37 20 -124 19 -161
-1 -16 -8 -335 -321 -709 -696 -377 -378 -697 -690 -717 -701 -45 -23 -98 -24
-141 -3 -18 9 -345 328 -727 709 -597 596 -701 695 -735 704 -50 14 -61 13
-108 -3z"/>
</g>
</svg>
