<?xml version="1.0" standalone="no"?>
<!DOCTYPE svg PUBLIC "-//W3C//DTD SVG 20010904//EN"
 "http://www.w3.org/TR/2001/REC-SVG-20010904/DTD/svg10.dtd">
<svg version="1.0" xmlns="http://www.w3.org/2000/svg"
 width="626.000000pt" height="626.000000pt" viewBox="0 0 626.000000 626.000000"
 preserveAspectRatio="xMidYMid meet">
<metadata>
Created by potrace 1.15, written by Peter Selinger 2001-2017
</metadata>
<g transform="translate(0.000000,626.000000) scale(0.100000,-0.100000)"
fill="#000000" stroke="none">
<path d="M2290 5035 c0 -3 -9 -65 -20 -138 -10 -73 -26 -184 -35 -247 -8 -63
-20 -144 -25 -180 -6 -36 -26 -177 -45 -315 -19 -137 -44 -313 -55 -390 -16
-111 -170 -1202 -195 -1383 -8 -52 -20 -47 -39 16 -7 26 -44 133 -80 237 -37
105 -85 242 -107 305 -22 63 -53 151 -69 195 -22 62 -127 360 -226 645 -3 9
-15 -3 -33 -35 -16 -28 -51 -88 -78 -135 -135 -229 -158 -269 -185 -315 -15
-27 -65 -113 -111 -190 l-82 -140 -453 -3 -452 -2 0 -130 0 -130 531 2 531 3
114 195 c138 237 147 251 155 242 4 -4 13 -27 22 -52 9 -25 80 -227 158 -450
77 -223 152 -434 165 -470 45 -126 304 -867 304 -872 0 -12 32 -80 35 -76 3 2
9 40 15 84 6 43 19 138 30 209 11 72 35 247 55 390 20 143 43 305 51 360 8 55
21 150 29 210 8 61 24 169 34 240 11 72 36 247 56 390 20 143 45 319 55 390
11 72 24 163 29 203 9 68 16 92 24 81 2 -2 24 -76 50 -164 26 -88 81 -275 122
-415 42 -140 91 -307 110 -370 18 -63 76 -259 128 -435 52 -176 102 -346 111
-377 9 -32 20 -58 24 -58 4 0 17 15 29 33 12 17 49 70 82 117 66 93 80 113
202 287 82 115 183 259 349 493 45 63 107 152 139 197 32 45 62 78 67 75 6 -4
56 -60 112 -125 56 -65 146 -167 199 -227 l97 -110 565 -2 566 -3 3 -157 c1
-87 5 -158 7 -158 10 0 895 445 895 450 0 5 -885 450 -895 450 -2 0 -6 -71 -7
-157 l-3 -158 -501 -3 -501 -2 -44 48 c-24 26 -71 79 -105 118 -33 38 -141
160 -238 272 -98 111 -179 202 -180 202 -2 0 -43 -57 -92 -127 -49 -69 -115
-163 -146 -207 -32 -45 -66 -92 -75 -106 -10 -14 -54 -77 -99 -140 -44 -63
-129 -182 -187 -265 -58 -82 -113 -160 -122 -173 -9 -13 -19 -21 -21 -19 -3 2
-23 67 -45 143 -21 77 -46 159 -53 184 -24 77 -73 240 -106 355 -18 61 -54
182 -80 270 -26 88 -76 255 -110 370 -71 242 -101 342 -141 475 -28 95 -173
586 -191 648 -8 28 -18 43 -18 27z"/>
</g>
</svg>
