<?xml version="1.0" standalone="no"?>
<!DOCTYPE svg PUBLIC "-//W3C//DTD SVG 20010904//EN"
 "http://www.w3.org/TR/2001/REC-SVG-20010904/DTD/svg10.dtd">
<svg version="1.0" xmlns="http://www.w3.org/2000/svg"
 width="225.000000pt" height="225.000000pt" viewBox="0 0 225.000000 225.000000"
 preserveAspectRatio="xMidYMid meet">
<metadata>
Created by potrace 1.15, written by Peter Selinger 2001-2017
</metadata>
<g transform="translate(0.000000,225.000000) scale(0.100000,-0.100000)"
fill="#000000" stroke="none">
<path d="M1242 1918 c-20 -20 -15 -86 7 -98 11 -5 70 -10 131 -10 61 0 120 5
131 10 22 12 27 78 7 98 -8 8 -53 12 -138 12 -85 0 -130 -4 -138 -12z"/>
<path d="M1190 1701 c-162 -51 -306 -174 -379 -321 -54 -110 -75 -209 -68
-320 11 -169 65 -288 187 -411 92 -94 178 -144 295 -174 76 -19 222 -19 304 0
227 54 413 242 467 473 24 99 15 266 -18 354 -36 97 -84 172 -154 242 -73 72
-146 118 -241 151 -89 32 -120 32 -145 0 -15 -19 -29 -25 -59 -25 -29 0 -47 7
-65 25 -29 29 -49 30 -124 6z m321 -127 c141 -42 253 -138 316 -271 35 -72 38
-86 41 -184 6 -163 -28 -257 -132 -367 -105 -112 -219 -156 -385 -150 -101 3
-112 6 -187 42 -312 154 -381 557 -135 802 122 123 321 175 482 128z"/>
<path d="M1360 1327 c0 -160 -2 -175 -20 -192 -27 -24 -33 -50 -19 -77 16 -31
28 -38 65 -38 62 0 86 71 39 114 -25 23 -25 25 -25 195 0 164 -1 171 -20 171
-19 0 -20 -7 -20 -173z"/>
<path d="M466 1604 c-21 -21 -20 -47 2 -67 16 -14 43 -17 175 -17 144 0 159 2
177 20 24 24 24 29 4 58 -15 21 -21 22 -179 22 -135 0 -166 -3 -179 -16z"/>
<path d="M302 1384 c-12 -8 -22 -26 -22 -38 0 -47 19 -51 216 -50 196 1 214 6
214 50 0 46 -30 54 -215 54 -138 0 -175 -3 -193 -16z"/>
<path d="M192 1148 c-18 -18 -15 -53 6 -71 16 -15 47 -17 229 -17 191 0 211 2
226 18 20 22 22 53 5 70 -17 17 -449 17 -466 0z"/>
<path d="M296 914 c-9 -8 -16 -24 -16 -34 0 -45 20 -50 219 -50 132 0 191 4
199 12 19 19 15 66 -7 78 -12 6 -95 10 -200 10 -150 0 -182 -3 -195 -16z"/>
<path d="M512 703 c-50 -5 -73 -35 -53 -71 15 -29 54 -34 215 -30 123 3 139 5
152 22 13 18 11 52 -5 67 -7 8 -250 17 -309 12z"/>
</g>
</svg>
