<?xml version="1.0" standalone="no"?>
<!DOCTYPE svg PUBLIC "-//W3C//DTD SVG 20010904//EN"
 "http://www.w3.org/TR/2001/REC-SVG-20010904/DTD/svg10.dtd">
<svg version="1.0" xmlns="http://www.w3.org/2000/svg"
 width="1356.000000pt" height="1127.000000pt" viewBox="0 0 1356.000000 1127.000000"
 preserveAspectRatio="xMidYMid meet">
<metadata>
Created by potrace 1.15, written by Peter Selinger 2001-2017
</metadata>
<g transform="translate(0.000000,1127.000000) scale(0.100000,-0.100000)"
fill="#000000" stroke="none">
<path d="M7849 10261 c-49 -10 -119 -53 -145 -88 -44 -60 -49 -90 -49 -268 0
-193 7 -219 83 -287 72 -65 42 -63 852 -63 811 0 780 -2 853 64 66 59 80 104
85 262 7 214 -24 296 -133 356 l-50 28 -730 2 c-401 0 -746 -2 -766 -6z"/>
<path d="M8246 9444 c-14 -13 -16 -49 -16 -239 0 -267 7 -309 64 -369 60 -64
134 -89 261 -90 123 -1 197 20 258 74 70 62 77 95 77 376 0 173 -3 243 -12
252 -9 9 -93 12 -314 12 -262 0 -305 -2 -318 -16z"/>
<path d="M7955 8949 c-656 -95 -1337 -392 -1874 -817 -500 -397 -897 -901
-1157 -1473 -36 -77 -71 -157 -78 -177 -8 -21 -28 -75 -45 -122 -77 -206 -147
-475 -184 -710 -40 -249 -52 -399 -52 -660 0 -296 24 -543 77 -785 10 -49 21
-103 25 -120 8 -47 72 -274 93 -335 74 -215 126 -341 206 -505 69 -141 122
-238 181 -334 632 -1019 1665 -1700 2838 -1872 418 -61 919 -49 1335 32 1068
207 2005 841 2605 1763 313 481 524 1059 599 1634 56 429 45 850 -35 1277 -20
108 -70 320 -90 380 -83 254 -87 266 -150 417 -454 1087 -1374 1922 -2505
2273 -194 60 -463 121 -621 139 -48 6 -53 5 -53 -13 0 -11 -10 -46 -21 -78
-25 -66 -90 -141 -164 -188 -138 -89 -386 -110 -550 -47 -136 52 -259 183
-279 295 -8 41 -4 40 -101 26z m800 -789 c378 -27 678 -95 1000 -227 991 -405
1705 -1272 1915 -2323 45 -228 54 -323 53 -615 0 -292 -8 -389 -53 -615 -251
-1259 -1241 -2247 -2500 -2494 -233 -46 -288 -50 -610 -50 -355 -1 -461 11
-760 84 -748 184 -1417 647 -1852 1285 -251 367 -422 775 -498 1185 -6 36 -16
88 -21 115 -6 28 -16 120 -24 205 -61 657 91 1333 430 1905 246 414 633 811
1045 1070 557 349 1234 521 1875 475z"/>
<path d="M8490 6446 l0 -1104 -37 -13 c-21 -6 -62 -27 -91 -46 -307 -203 -214
-673 149 -749 183 -38 369 57 455 231 27 56 29 68 29 175 -1 107 -3 119 -30
175 -39 79 -118 158 -197 195 -35 17 -69 30 -75 30 -10 0 -13 228 -13 1105 l0
1105 -95 0 -95 0 0 -1104z"/>
<path d="M9268 5915 c-192 -190 -348 -348 -348 -353 0 -5 27 -21 60 -37 79
-38 138 -97 184 -185 20 -38 42 -70 48 -70 14 0 698 681 698 695 0 10 -281
295 -290 295 -3 0 -161 -156 -352 -345z"/>
<path d="M2937 8296 c-120 -43 -197 -152 -197 -277 0 -126 52 -212 164 -269
l69 -35 956 0 956 0 57 27 c193 90 239 336 91 480 -94 91 9 83 -1088 85 -799
2 -977 0 -1008 -11z"/>
<path d="M1862 6874 c-169 -45 -258 -210 -206 -384 12 -41 29 -67 73 -111 97
-96 0 -90 1282 -87 l1114 3 50 27 c60 32 105 77 137 138 31 61 32 184 1 250
-27 60 -86 117 -153 149 l-55 26 -1095 2 c-927 2 -1103 0 -1148 -13z"/>
<path d="M1191 5398 c-65 -25 -135 -91 -164 -156 -31 -70 -28 -181 6 -247 30
-59 85 -114 147 -146 l45 -24 1310 0 1310 0 46 21 c115 53 179 152 179 276 0
94 -28 157 -97 218 -96 86 19 80 -1438 80 -1281 -1 -1290 -1 -1344 -22z"/>
<path d="M1843 3932 c-67 -24 -118 -64 -154 -121 -39 -61 -52 -114 -46 -187 8
-107 66 -191 169 -246 l43 -23 1125 0 c912 0 1132 3 1163 13 58 21 129 83 162
143 26 48 30 63 29 139 0 68 -4 93 -22 127 -34 65 -75 106 -139 139 l-58 29
-1110 2 c-1045 2 -1113 1 -1162 -15z"/>
<path d="M2936 2514 c-119 -43 -196 -152 -196 -276 0 -122 56 -214 162 -267
l61 -31 967 0 967 0 61 31 c71 35 105 72 140 149 20 45 23 67 20 125 -6 116
-65 207 -167 257 l-46 23 -965 2 c-818 1 -971 0 -1004 -13z"/>
</g>
</svg>
