<?xml version="1.0" standalone="no"?>
<!DOCTYPE svg PUBLIC "-//W3C//DTD SVG 20010904//EN"
 "http://www.w3.org/TR/2001/REC-SVG-20010904/DTD/svg10.dtd">
<svg version="1.0" xmlns="http://www.w3.org/2000/svg"
 width="512.000000pt" height="512.000000pt" viewBox="0 0 512.000000 512.000000"
 preserveAspectRatio="xMidYMid meet">
<metadata>
Created by potrace 1.15, written by Peter Selinger 2001-2017
</metadata>
<g transform="translate(0.000000,512.000000) scale(0.100000,-0.100000)"
fill="#000000" stroke="none">
<path d="M822 3780 c-62 -38 -62 -40 -62 -565 l0 -475 95 0 95 0 0 435 0 435
1320 0 1320 0 0 -135 0 -135 95 0 95 0 -1 173 c0 195 -8 231 -58 264 l-34 23
-1416 0 c-1403 0 -1416 0 -1449 -20z"/>
<path d="M3334 3211 c-31 -14 -47 -30 -63 -63 -21 -44 -21 -47 -21 -844 0
-891 -4 -843 69 -891 l34 -23 587 0 587 0 34 23 c73 48 69 -1 69 895 0 889 3
847 -64 895 l-31 22 -580 2 c-549 3 -582 2 -621 -16z m1196 -821 l0 -700 -590
0 -590 0 0 700 0 700 590 0 590 0 0 -700z"/>
<path d="M564 2620 c-12 -4 -31 -21 -43 -36 -21 -27 -21 -29 -21 -615 l0 -589
29 -32 29 -33 289 -3 c272 -2 290 -1 320 17 21 13 35 33 42 58 16 56 14 1127
-2 1173 -22 66 -45 70 -352 69 -148 0 -280 -4 -291 -9z m576 -655 l0 -435
-280 0 -280 0 0 435 0 435 280 0 280 0 0 -435z"/>
<path d="M1330 1995 l0 -185 905 0 905 0 0 185 0 185 -905 0 -905 0 0 -185z
m986 52 c56 -48 24 -127 -51 -127 -37 0 -75 37 -75 72 0 26 53 78 79 78 11 0
32 -11 47 -23z"/>
<path d="M1942 1625 c-15 -95 -29 -122 -86 -164 -25 -19 -46 -43 -46 -53 0
-17 22 -18 460 -18 516 0 498 -3 411 70 -56 47 -77 90 -87 179 l-7 61 -316 0
-317 0 -12 -75z"/>
</g>
</svg>
