<?xml version="1.0" standalone="no"?>
<!DOCTYPE svg PUBLIC "-//W3C//DTD SVG 20010904//EN"
 "http://www.w3.org/TR/2001/REC-SVG-20010904/DTD/svg10.dtd">
<svg version="1.0" xmlns="http://www.w3.org/2000/svg"
 width="981.000000pt" height="888.000000pt" viewBox="0 0 981.000000 888.000000"
 preserveAspectRatio="xMidYMid meet">
<metadata>
Created by potrace 1.15, written by Peter Selinger 2001-2017
</metadata>
<g transform="translate(0.000000,888.000000) scale(0.100000,-0.100000)"
fill="#000000" stroke="none">
<path d="M334 8852 c-159 -55 -278 -181 -319 -337 -13 -53 -15 -404 -15 -3140
0 -2699 2 -3088 15 -3138 47 -181 198 -323 379 -356 41 -8 564 -11 1698 -11
l1638 0 0 -465 0 -465 -497 0 c-542 0 -576 -3 -675 -57 -116 -63 -209 -218
-220 -368 l-3 -40 2097 -3 2097 -2 6 -38 c29 -193 88 -288 222 -359 123 -66
54 -63 1416 -63 l1236 0 78 25 c122 39 217 114 267 212 47 94 46 -5 46 2563 0
2130 -2 2413 -15 2465 -49 185 -186 294 -417 330 l-38 6 0 1435 c0 1421 0
1435 -21 1496 -50 151 -171 269 -318 312 -50 15 -456 16 -4330 16 -4068 -1
-4278 -2 -4327 -18z m8534 -1844 l2 -1397 -977 -3 c-1074 -4 -1009 0 -1133
-63 -115 -58 -198 -178 -220 -315 -6 -41 -10 -497 -10 -1242 l0 -1178 -3030 0
-3030 0 0 2800 0 2800 4198 -2 4197 -3 3 -1397z m462 -3733 l0 -1865 -1165 0
-1165 0 0 1865 0 1865 1165 0 1165 0 0 -1865z m-2800 -1870 l0 -465 -465 0
-465 0 0 465 0 465 465 0 465 0 0 -465z m1758 -502 c197 -122 109 -429 -123
-427 -215 2 -311 267 -146 405 54 46 95 59 164 55 42 -3 72 -12 105 -33z"/>
</g>
</svg>
