<?xml version="1.0" standalone="no"?>
<!DOCTYPE svg PUBLIC "-//W3C//DTD SVG 20010904//EN"
 "http://www.w3.org/TR/2001/REC-SVG-20010904/DTD/svg10.dtd">
<svg version="1.0" xmlns="http://www.w3.org/2000/svg"
 width="200.000000pt" height="200.000000pt" viewBox="0 0 200.000000 200.000000"
 preserveAspectRatio="xMidYMid meet">
<metadata>
Created by potrace 1.15, written by Peter Selinger 2001-2017
</metadata>
<g transform="translate(0.000000,200.000000) scale(0.100000,-0.100000)"
fill="#000000" stroke="none">
<path d="M247 1402 c-15 -17 -17 -65 -17 -480 0 -449 1 -463 20 -482 13 -13
33 -20 60 -20 l40 0 0 -111 c0 -61 5 -119 10 -130 10 -17 22 -19 135 -19 113
0 125 2 135 19 5 11 10 69 10 130 l0 111 96 0 c73 0 95 -3 91 -12 -2 -7 -12
-48 -22 -90 l-18 -77 -51 -3 -51 -3 0 -35 0 -35 239 0 c217 0 240 2 250 18 18
28 -5 51 -55 57 l-44 5 -17 70 c-27 114 -35 105 97 105 l115 0 0 -108 c0 -159
-12 -152 267 -152 l222 0 20 26 c20 26 21 38 21 374 0 336 -1 348 -21 374 -18
23 -28 26 -79 26 l-59 0 -3 209 c-3 189 -5 211 -22 230 -19 21 -21 21 -686 21
-633 0 -668 -1 -683 -18z m1303 -252 l0 -190 -120 0 c-169 0 -160 14 -160
-245 l0 -205 -315 0 -315 0 0 29 c0 49 -29 61 -145 61 -116 0 -145 -12 -145
-61 0 -22 -5 -29 -20 -29 -20 0 -20 7 -20 415 l0 415 620 0 620 0 0 -190z
m200 -600 l0 -270 -215 0 -215 0 0 270 0 270 215 0 215 0 0 -270z m-1160 -155
l0 -155 -95 0 -95 0 0 155 0 155 95 0 95 0 0 -155z"/>
</g>
</svg>
