<?xml version="1.0" standalone="no"?>
<!DOCTYPE svg PUBLIC "-//W3C//DTD SVG 20010904//EN"
 "http://www.w3.org/TR/2001/REC-SVG-20010904/DTD/svg10.dtd">
<svg version="1.0" xmlns="http://www.w3.org/2000/svg"
 width="981.000000pt" height="786.000000pt" viewBox="0 0 981.000000 786.000000"
 preserveAspectRatio="xMidYMid meet">
<metadata>
Created by potrace 1.15, written by Peter Selinger 2001-2017
</metadata>
<g transform="translate(0.000000,786.000000) scale(0.100000,-0.100000)"
fill="#000000" stroke="none">
<path d="M3320 7840 c-436 -6 -430 -6 -545 -55 -110 -47 -283 -190 -364 -300
-43 -59 -98 -174 -116 -241 -12 -45 -31 -298 -35 -456 0 -5 132 -8 294 -8
l294 0 4 153 c3 127 7 159 25 197 38 83 73 101 233 121 125 16 5289 25 5674
10 254 -10 260 -10 315 -38 66 -33 85 -65 101 -168 21 -143 29 -783 30 -2362
l0 -1623 -1845 0 -1845 0 0 -713 0 -713 1133 3 c622 2 1440 4 1817 6 l685 3
105 53 c141 72 202 115 286 202 88 92 120 140 184 270 l50 102 0 2469 0 2468
-51 103 c-124 245 -245 365 -485 478 l-103 49 -2713 -2 c-1492 -1 -2900 -5
-3128 -8z m2872 -5137 c82 -39 151 -105 186 -181 24 -50 27 -70 27 -157 0 -93
-2 -105 -33 -167 -139 -283 -537 -286 -674 -6 -104 213 0 461 225 534 26 9 73
13 122 11 66 -3 94 -9 147 -34z"/>
<path d="M1088 6530 c-62 -6 -87 -14 -136 -44 -114 -69 -192 -184 -212 -313
-6 -40 -12 -299 -13 -638 l-2 -570 223 -3 222 -2 0 235 0 235 1845 0 1845 0 0
-2150 0 -2150 -910 0 -911 0 3 -107 c3 -121 -3 -112 103 -149 69 -24 145 -99
181 -177 60 -133 30 -263 -85 -370 -47 -43 -71 -57 -122 -71 -35 -10 -75 -28
-88 -39 -22 -20 -101 -176 -101 -199 0 -14 1960 -4 2024 11 28 6 68 20 91 31
85 41 204 163 244 250 15 32 16 295 19 2971 l3 2936 -36 66 c-49 89 -104 149
-191 208 l-73 49 -1923 -1 c-1058 -1 -1957 -5 -2000 -9z m2037 -482 c43 -51
28 -151 -30 -196 -74 -58 -215 10 -215 104 0 43 66 120 114 132 45 12 102 -6
131 -40z"/>
<path d="M347 4739 c-71 -6 -104 -15 -165 -44 -97 -46 -119 -67 -137 -130 -35
-121 -37 -230 -42 -1953 -4 -1665 2 -2200 27 -2352 16 -95 37 -128 120 -187
l73 -53 1181 0 1181 1 67 49 c37 28 75 62 85 76 28 43 42 137 54 349 15 283 7
3921 -9 3988 -26 109 -77 171 -178 219 -53 25 -82 31 -186 38 -149 11 -1947
10 -2071 -1z m1226 -325 l77 -7 0 -70 0 -69 -233 3 c-253 4 -260 6 -271 60 -7
37 7 67 37 79 26 10 282 13 390 4z m907 -2034 l0 -1550 -1075 0 -1075 0 0
1550 0 1550 1075 0 1075 0 0 -1550z m-1021 -1740 c99 -28 171 -123 171 -225
-1 -167 -148 -272 -314 -223 -63 19 -140 100 -156 166 -42 176 124 333 299
282z"/>
<path d="M5537 903 c-3 -278 -11 -520 -17 -562 -15 -95 -36 -150 -94 -245 -25
-42 -46 -79 -46 -81 0 -9 1845 -4 1978 5 190 13 266 51 273 135 4 62 -2 84
-32 114 -37 38 -97 56 -251 76 -202 26 -307 70 -408 169 -129 127 -195 352
-207 709 l-6 167 -592 0 -592 0 -6 -487z"/>
</g>
</svg>
